<?xml version="1.0" encoding="utf-8"?>
<!-- Generator: Adobe Illustrator 26.5.0, SVG Export Plug-In . SVG Version: 6.00 Build 0)  -->
<svg version="1.1" xmlns="http://www.w3.org/2000/svg" xmlns:xlink="http://www.w3.org/1999/xlink" x="0px" y="0px"
	 viewBox="0 0 1218.9 841.9" style="enable-background:new 0 0 1218.9 841.9;" xml:space="preserve">
<style type="text/css">
	.st0{fill:#686867;stroke:#000000;stroke-miterlimit:10;}
	.st1{font-family:'AbrilFatface-Regular';}
	.st2{font-size:37px;}
	.st3{fill:#FFFFFF;}
</style>
<g id="Capa_1">
</g>
<g id="Capa_2">
	<rect x="40.5" y="81.3" class="st0" width="352.9" height="682.9"/>
	<rect x="433" y="81.3" class="st0" width="352.9" height="682.9"/>
	<rect x="822.9" y="81.3" class="st0" width="352.9" height="682.9"/>
	<text transform="matrix(1 0 0 1 96.4734 175.0486)" class="st1 st2">AL INSTANTE</text>
	<text transform="matrix(1 0 0 1 465.9461 174.6787)" class="st1 st2">PRIMEROS DÍAS</text>
	<text transform="matrix(1 0 0 1 846.1078 175.4183)" class="st1 st2">DESPUÉS 72 DÍAS</text>
	<text transform="matrix(1 0 0 1 96.4735 236.0161)"><tspan x="0" y="0" class="st3 st1 st2">-3 tripulantes</tspan><tspan x="0" y="44.4" class="st3 st1 st2">-8 pasajeros</tspan></text>
	<text transform="matrix(1 0 0 1 510.2347 244.8219)"><tspan x="0" y="0" class="st3 st1 st2">-6 pasajeros</tspan><tspan x="0" y="44.4" class="st3 st1 st2">primer día</tspan><tspan x="0" y="88.8" class="st3 st1 st2">-3 personas </tspan><tspan x="0" y="133.2" class="st3 st1 st2">segundo día</tspan></text>
	<text transform="matrix(1 0 0 1 282.8916 62.738)" class="st1 st2">Fallecimientos en el tiempo de pérdida</text>
	<text transform="matrix(1 0 0 1 875.5587 254.072)"><tspan x="0" y="0" class="st3 st1 st2">-16 sobreviven</tspan><tspan x="0" y="44.4" class="st3 st1 st2">del total</tspan></text>
</g>
<g id="Capa_3">
	
		<image style="overflow:visible;" width="736" height="394" xlink:href="IMG-0377.PNG"  transform="matrix(1.6267 0 0 1.6267 58.3139 189.0294)">
	</image>
</g>
</svg>
